<?xml version="1.0" encoding="utf-8"?>
<!-- Generator: Adobe Illustrator 19.2.1, SVG Export Plug-In . SVG Version: 6.00 Build 0)  -->
<svg version="1.1" id="Layer_1" xmlns="http://www.w3.org/2000/svg" xmlns:xlink="http://www.w3.org/1999/xlink" x="0px" y="0px"
	 viewBox="0 0 20 20" style="enable-background:new 0 0 20 20;" xml:space="preserve">
<path class="clock-blk" d="M10,2c4.4,0,8,3.6,8,8s-3.6,8-8,8s-8-3.6-8-8S5.6,2,10,2 M10,0C4.5,0,0,4.5,0,10c0,5.5,4.5,10,10,10s10-4.5,10-10
	C20,4.5,15.5,0,10,0L10,0z"/>
<path class="clock-blk" d="M14.7,11H9V5.2c0-0.6,0.4-1,1-1s1,0.4,1,1V9h3.7c0.6,0,1,0.4,1,1S15.3,11,14.7,11z"/>
</svg>
