<?xml version="1.0" encoding="utf-8"?>
<!-- Generator: Adobe Illustrator 19.2.1, SVG Export Plug-In . SVG Version: 6.00 Build 0)  -->
<svg version="1.1" id="Layer_1" xmlns="http://www.w3.org/2000/svg" xmlns:xlink="http://www.w3.org/1999/xlink" x="0px" y="0px"
	 viewBox="0 0 20 20" style="enable-background:new 0 0 20 20;" xml:space="preserve">
<style type="text/css">
	.st0{fill:#FFFFFF;} 
</style>
<g>
	<path class="st0" d="M16.7,6.7c0,0.9-0.1,1.7-0.4,2.3l-4.7,10.1c-0.1,0.3-0.3,0.5-0.6,0.7C10.6,19.9,10.3,20,10,20
		c-0.3,0-0.6-0.1-0.9-0.2c-0.3-0.2-0.5-0.4-0.6-0.7L3.8,9C3.5,8.4,3.3,7.6,3.3,6.7c0-1.8,0.7-3.4,2-4.7C6.6,0.7,8.2,0,10,0
		s3.4,0.7,4.7,2C16,3.3,16.7,4.8,16.7,6.7z M12.4,9c0.7-0.7,1-1.4,1-2.4S13,5,12.4,4.3c-0.7-0.7-1.4-1-2.4-1c-0.9,0-1.7,0.3-2.4,1
		C7,5,6.7,5.7,6.7,6.7S7,8.4,7.6,9c0.7,0.7,1.4,1,2.4,1C10.9,10,11.7,9.7,12.4,9z"/>
</g>
</svg>
