<?xml version="1.0" encoding="utf-8"?>
<!-- Generator: Adobe Illustrator 19.2.1, SVG Export Plug-In . SVG Version: 6.00 Build 0)  -->
<svg version="1.1" id="Layer_1" xmlns="http://www.w3.org/2000/svg" xmlns:xlink="http://www.w3.org/1999/xlink" x="0px" y="0px"
	 viewBox="0 0 20 20" style="enable-background:new 0 0 20 20;" xml:space="preserve">
<style type="text/css">
	.st0{fill:#FFFFFF;}
</style>
<g>
	<path class="st0" d="M3.7,16.7H6c0.2,0,0.4-0.2,0.4-0.4V14c0-0.2-0.2-0.4-0.4-0.4H3.7c-0.2,0-0.4,0.2-0.4,0.4v2.3
		C3.3,16.5,3.5,16.7,3.7,16.7z"/>
	<path class="st0" d="M8.8,16.7H11c0.2,0,0.4-0.2,0.4-0.4V14c0-0.2-0.2-0.4-0.4-0.4H8.8c-0.2,0-0.4,0.2-0.4,0.4v2.3
		C8.4,16.5,8.5,16.7,8.8,16.7z"/>
	<path class="st0" d="M13.8,16.7h2.3c0.2,0,0.4-0.2,0.4-0.4V14c0-0.2-0.2-0.4-0.4-0.4h-2.3c-0.2,0-0.4,0.2-0.4,0.4v2.3
		C13.4,16.5,13.6,16.7,13.8,16.7z"/>
	<path class="st0" d="M3.7,11.9H6c0.2,0,0.4-0.2,0.4-0.4V9.2C6.4,9,6.2,8.8,6,8.8H3.7C3.5,8.8,3.3,9,3.3,9.2v2.3
		C3.3,11.7,3.5,11.9,3.7,11.9z"/>
	<path class="st0" d="M8.8,11.9H11c0.2,0,0.4-0.2,0.4-0.4V9.2c0-0.2-0.2-0.4-0.4-0.4H8.8C8.5,8.8,8.4,9,8.4,9.2v2.3
		C8.4,11.7,8.5,11.9,8.8,11.9z"/>
	<path class="st0" d="M13.8,11.9h2.3c0.2,0,0.4-0.2,0.4-0.4V9.2c0-0.2-0.2-0.4-0.4-0.4h-2.3c-0.2,0-0.4,0.2-0.4,0.4v2.3
		C13.4,11.7,13.6,11.9,13.8,11.9z"/>
	<path class="st0" d="M14.4,3.8h1.2c0.2,0,0.4-0.2,0.4-0.4V2.2V0.4C16,0.2,15.8,0,15.6,0h-1.2C14.2,0,14,0.2,14,0.4v1.8v1.3
		C14,3.7,14.2,3.8,14.4,3.8z"/>
	<path class="st0" d="M4.3,3.8h1.2c0.2,0,0.4-0.2,0.4-0.4V2.2V0.4C5.9,0.2,5.8,0,5.5,0H4.3C4.1,0,3.9,0.2,3.9,0.4v1.8v1.3
		C3.9,3.7,4.1,3.8,4.3,3.8z"/>
	<path class="st0" d="M18.9,2.2h-1.6v1.7c0,0.7-0.4,1.1-1.1,1.1h-2.5c-0.7,0-1.1-0.4-1.1-1.1V2.2H7.2v1.7c0,0.7-0.4,1.1-1.1,1.1H3.7
		C3,4.9,2.6,4.6,2.6,3.9V2.2H0.8C0.3,2.2,0,2.5,0,2.9v16.3C0,19.7,0.3,20,0.8,20h18.5c0.4,0,0.8-0.3,0.8-0.8v-16
		C20,2.7,19.5,2.2,18.9,2.2z M18.5,18.5h-17V7h17V18.5z"/>
</g>
</svg>
